:SAMPLES-PER-SECOND 30
:FULLY-SPECIFIED
:DEGREES
448
root  -0.829477 40.1177 -1.31999 0.603022 0.285659 1.60345
RightUpLeg  -4.29508 -4.99711 -4.70636
RightLeg  4.69105 -15.6141 -0.726995
RightFoot  1.6653 -0.416628 3.07792
RightToes  1.74624e-010 -3.18055e-015 -2.98177e-016
Spine  -4.44329 1.62464 4.017
Spine1  10.8093 3.80627 -8.24098
HEad  -21.4512 2.93456 2.85865
LeftShoulder1  -3.88251e-019 9.70628e-020 -3.87848e-018
LeftArm  -18.7919 65.8417 -58.3348
LeftForeArm  -19.6548 -14.7235 -2.28099
LeftHand  -0.403859 0.198675 9.86231
RightShoulder  8.65929 11.0941 39.7951
RightArm  9.31089 -41.722 6.84814
RightForeArm  -3.28009 13.7974 -4.2983
RightHand  -0.754474 -0.380287 -17.0092
LeftUpLeg  -3.36572 -3.75083 -4.42669
LeftLeg  5.09391 12.7621 3.86624
LeftFoot  -1.883 -0.0503135 0.435418
LeftToes  7.37594e-011 2.64622e-011 -6.25182e-011
449
root  -0.885467 40.1211 -1.30817 0.350361 1.18954 1.47827
RightUpLeg  -3.73747 -4.96378 -4.56628
RightLeg  4.6253 -16.5317 -0.773184
RightFoot  1.53015 -0.427547 3.19036
RightToes  1.74624e-010 -3.18055e-015 -2.98177e-016
Spine  -4.50123 1.53669 3.66575
Spine1  11.2859 3.64965 -7.75503
HEad  -20.4583 2.98294 3.53502
LeftShoulder1  -3.88251e-019 9.70628e-020 -3.87848e-018
LeftArm  -17.2188 68.4794 -58.9505
LeftForeArm  -25.0773 -19.5623 -1.41513
LeftHand  -0.394566 -0.455744 8.50841
RightShoulder  8.59036 11.0656 39.533
RightArm  9.91387 -42.9198 5.72933
RightForeArm  -0.862829 13.8072 -4.61743
RightHand  -0.694342 -0.459024 -15.8819
LeftUpLeg  -3.21339 -3.66434 -4.22168
LeftLeg  5.11611 11.7675 3.8601
LeftFoot  -1.87366 -0.0446823 0.369872
LeftToes  7.37594e-011 2.64622e-011 -6.25182e-011
450
root  -0.924985 40.1234 -1.29595 0.0663197 2.04654 1.40044
RightUpLeg  -3.09783 -5.10097 -4.56795
RightLeg  4.49784 -17.2068 -0.628507
RightFoot  1.39068 -0.441705 3.34079
RightToes  1.74624e-010 -3.18055e-015 -2.98177e-016
Spine  -4.6697 1.43344 3.03892
Spine1  11.8977 3.40376 -6.9279
HEad  -19.8664 2.91323 3.90378
LeftShoulder1  -3.88251e-019 9.70628e-020 -3.87848e-018
LeftArm  -16.9351 70.4206 -61.1851
LeftForeArm  -31.5306 -22.7556 0.314503
LeftHand  -0.307326 -0.717186 6.33999
RightShoulder  8.67501 11.0953 39.8666
RightArm  9.01124 -43.2041 5.11524
RightForeArm  0.645451 13.0601 -4.8656
RightHand  -0.564328 -0.865151 -14.0318
LeftUpLeg  -3.0341 -3.5835 -4.07989
LeftLeg  5.17205 10.8382 3.83047
LeftFoot  -1.88483 -0.0520887 0.443066
LeftToes  7.37594e-011 2.64622e-011 -6.25182e-011
451
root  -0.949009 40.1242 -1.28386 -0.200382 2.63844 1.38102
RightUpLeg  -2.6195 -5.2584 -4.63702
RightLeg  4.51203 -17.5889 -0.556518
RightFoot  1.23713 -0.454644 3.50466
RightToes  1.74624e-010 -3.18055e-015 -2.98177e-016
Spine  -4.77974 1.43666 2.77293
Spine1  12.3392 3.3854 -6.66498
HEad  -19.3991 2.69099 4.20499
LeftShoulder1  -3.88251e-019 9.70628e-020 -3.87848e-018
LeftArm  -18.6625 71.3978 -63.5219
LeftForeArm  -35.1007 -24.1488 1.34204
LeftHand  -0.236545 -0.507982 5.09261
RightShoulder  8.87771 11.1688 40.6536
RightArm  7.70407 -43.09 4.86371
RightForeArm  0.492793 12.0242 -5.06851
RightHand  -0.461736 -1.26639 -12.5585
LeftUpLeg  -2.81968 -3.5661 -4.0395
LeftLeg  5.19649 10.2359 3.82618
LeftFoot  -1.88281 -0.0625957 0.550575
LeftToes  7.37594e-011 2.64622e-011 -6.25182e-011
452
root  -0.954227 40.1206 -1.27091 -0.447424 2.84145 1.4132
RightUpLeg  -2.41888 -5.38058 -4.73758
RightLeg  4.80829 -17.6188 -0.696525
RightFoot  1.06432 -0.458461 3.58434
RightToes  1.74624e-010 -3.18055e-015 -2.98177e-016
Spine  -4.82218 1.58938 3.02651
Spine1  12.5801 3.67043 -7.10712
HEad  -18.5965 2.30535 4.47788
LeftShoulder1  -3.88251e-019 9.70628e-020 -3.87848e-018
LeftArm  -20.7554 71.5465 -65.069
LeftForeArm  -35.1817 -24.1175 1.4203
LeftHand  -0.253406 -0.259685 5.67384
RightShoulder  9.03485 11.2247 41.259
RightArm  6.56471 -43.2066 5.22269
RightForeArm  -0.734284 11.1725 -5.24488
RightHand  -0.421439 -1.52668 -12.1814
LeftUpLeg  -2.56175 -3.60215 -4.09837
LeftLeg  5.21233 10.0598 3.86907
LeftFoot  -1.90013 -0.0662299 0.587585
LeftToes  7.37594e-011 2.64622e-011 -6.25182e-011
453
root  -0.94145 40.1119 -1.25825 -0.660221 2.92334 1.48187
RightUpLeg  -2.36799 -5.53866 -4.8954
RightLeg  5.26591 -17.4698 -0.918746
RightFoot  0.884951 -0.456801 3.60477
RightToes  1.74624e-010 -3.18055e-015 -2.98177e-016
Spine  -4.98768 1.76705 3.27616
Spine1  12.853 3.95441 -7.46633
HEad  -17.3534 1.85125 4.51185
LeftShoulder1  -3.88251e-019 9.70628e-020 -3.87848e-018
LeftArm  -23.4394 71.0552 -66.1629
LeftForeArm  -32.5904 -22.8096 0.85167
LeftHand  -0.296717 -0.174127 6.74747
RightShoulder  9.05223 11.2314 41.3239
RightArm  5.65472 -43.6911 6.20442
RightForeArm  -2.1684 10.9087 -5.47713
RightHand  -0.425503 -1.58358 -12.4712
LeftUpLeg  -2.34245 -3.66467 -4.22239
LeftLeg  5.27681 10.0267 3.93257
LeftFoot  -1.96081 -0.0663657 0.589541
LeftToes  7.37594e-011 2.64622e-011 -6.25182e-011
454
root  -0.915997 40.1023 -1.25013 -0.827045 3.12979 1.55363
RightUpLeg  -2.29595 -5.75722 -5.10114
RightLeg  5.65274 -17.3758 -1.05537
RightFoot  0.738526 -0.459875 3.65897
RightToes  1.74624e-010 -3.18055e-015 -2.98177e-016
Spine  -5.28228 1.84079 3.14101
Spine1  13.1726 3.98466 -7.23289
HEad  -15.944 1.55713 4.18156
LeftShoulder1  -3.88251e-019 9.70628e-020 -3.87848e-018
LeftArm  -26.9175 70.1838 -67.2651
LeftForeArm  -29.2969 -20.6062 0.210535
LeftHand  -0.310602 -0.131077 7.11744
RightShoulder  9.00348 11.2134 41.1389
RightArm  4.98952 -44.1429 7.4141
RightForeArm  -3.46648 11.3207 -5.77537
RightHand  -0.440653 -1.45978 -12.5326
LeftUpLeg  -2.2114 -3.71134 -4.34872
LeftLeg  5.37636 9.867 3.95941
LeftFoot  -2.04152 -0.070742 0.637761
LeftToes  7.37594e-011 2.64622e-011 -6.25182e-011
455
root  -0.877839 40.094 -1.25091 -0.964354 3.26341 1.6244
RightUpLeg  -2.24097 -5.97605 -5.32164
RightLeg  5.94361 -17.2413 -1.12978
RightFoot  0.646575 -0.467302 3.74709
RightToes  1.74624e-010 -3.18055e-015 -2.98177e-016
Spine  -5.43571 1.83209 2.82439
Spine1  13.2334 3.85951 -6.77523
HEad  -14.694 1.69151 3.63478
LeftShoulder1  -3.88251e-019 9.70628e-020 -3.87848e-018
LeftArm  -29.7934 69.4105 -68.2602
LeftForeArm  -27.1023 -18.4759 0.0223786
LeftHand  -0.320586 0.0232102 7.56527
RightShoulder  9.00182 11.2115 41.1354
RightArm  4.81801 -44.1064 8.45666
RightForeArm  -4.29564 12.2014 -5.98319
RightHand  -0.437661 -1.3124 -12.008
LeftUpLeg  -2.10802 -3.72311 -4.47044
LeftLeg  5.4662 9.75954 3.93906
LeftFoot  -2.12346 -0.0784376 0.722553
LeftToes  7.37594e-011 2.64622e-011 -6.25182e-011
456
root  -0.82127 40.0859 -1.2584 -1.08992 3.06514 1.73776
RightUpLeg  -2.31794 -6.16407 -5.56775
RightLeg  6.25045 -16.8366 -1.25096
RightFoot  0.596297 -0.475901 3.83418
RightToes  1.74624e-010 -3.18055e-015 -2.98177e-016
Spine  -5.34754 1.80226 2.57434
Spine1  12.9224 3.74358 -6.52556
HEad  -13.7281 2.3345 3.08271
LeftShoulder1  -3.88251e-019 9.70628e-020 -3.87848e-018
LeftArm  -31.2101 69.1771 -68.8584
LeftForeArm  -25.9837 -17.3185 0.119005
LeftHand  -0.363301 0.30812 9.06494
RightShoulder  9.0443 11.2256 41.3008
RightArm  5.38517 -43.5826 9.35051
RightForeArm  -4.27536 13.3913 -6.07038
RightHand  -0.427439 -1.18428 -11.3851
LeftUpLeg  -1.94605 -3.76196 -4.66948
LeftLeg  5.49451 10.0205 3.91603
LeftFoot  -2.19283 -0.0850179 0.797308
LeftToes  7.37594e-011 2.64622e-011 -6.25182e-011
457
root  -0.747766 40.0812 -1.26076 -1.22015 2.72652 1.89225
RightUpLeg  -2.3966 -6.34704 -5.84588
RightLeg  6.48535 -16.2939 -1.38299
RightFoot  0.595922 -0.488846 3.94297
RightToes  1.74624e-010 -3.18055e-015 -2.98177e-016
Spine  -5.2891 1.70219 2.24837
Spine1  12.5887 3.55051 -6.26999
HEad  -13 3.20561 2.51578
LeftShoulder1  -3.88251e-019 9.70628e-020 -3.87848e-018
LeftArm  -31.6979 69.4955 -69.2657
LeftForeArm  -25.4369 -17.2496 0.230883
LeftHand  -0.421654 0.439705 10.8144
RightShoulder  9.0462 11.2262 41.308
RightArm  6.37184 -42.9823 10.4752
RightForeArm  -3.81973 14.7525 -6.33
RightHand  -0.465905 -0.761473 -11.3197
LeftUpLeg  -1.67845 -3.87553 -4.96619
LeftLeg  5.38009 10.5083 3.88834
LeftFoot  -2.21254 -0.0923933 0.88209
LeftToes  7.37594e-011 2.64622e-011 -6.25182e-011
458
root  -0.667767 40.0842 -1.24801 -1.37681 2.58757 2.00465
RightUpLeg  -2.23645 -6.48617 -6.10431
RightLeg  6.45087 -15.986 -1.38911
RightFoot  0.675986 -0.50843 4.07698
RightToes  1.74624e-010 -3.18055e-015 -2.98177e-016
Spine  -5.47665 1.48986 1.67663
Spine1  12.546 3.15929 -5.63158
HEad  -12.4298 3.87583 1.7473
LeftShoulder1  -3.88251e-019 9.70628e-020 -3.87848e-018
LeftArm  -32.2445 70.0433 -70.1127
LeftForeArm  -25.3641 -17.861 0.416063
LeftHand  -0.473787 0.172775 11.505
RightShoulder  8.97396 11.2015 41.0285
RightArm  6.6752 -42.5387 12.1079
RightForeArm  -3.86129 15.8182 -6.8595
RightHand  -0.569434 0.0559523 -11.8433
LeftUpLeg  -1.32489 -3.98035 -5.23517
LeftLeg  5.13847 10.7928 3.80426
LeftFoot  -2.18974 -0.104026 1.01329
LeftToes  7.37594e-011 2.64622e-011 -6.25182e-011
459
root  -0.584756 40.0887 -1.22653 -1.52992 2.57383 2.0346
RightUpLeg  -1.94192 -6.56271 -6.30679
RightLeg  6.24757 -15.8725 -1.27903
RightFoot  0.807926 -0.526501 4.18103
RightToes  1.74624e-010 -3.18055e-015 -2.98177e-016
Spine  -5.74081 1.28694 1.05382
Spine1  12.5531 2.72231 -4.76911
HEad  -11.8787 4.24778 0.739113
LeftShoulder1  -3.88251e-019 9.70628e-020 -3.87848e-018
LeftArm  -33.5461 70.606 -71.7073
LeftForeArm  -25.658 -18.8216 0.793733
LeftHand  -0.496256 -0.199901 11.1995
RightShoulder  8.87947 11.1691 40.6614
RightArm  5.54741 -42.0816 13.9737
RightForeArm  -4.7916 16.1447 -7.25381
RightHand  -0.648469 0.544037 -12.4322
LeftUpLeg  -1.02709 -3.99433 -5.39325
LeftLeg  4.98937 10.8477 3.70263
LeftFoot  -2.22217 -0.116926 1.15945
LeftToes  7.37594e-011 2.64622e-011 -6.25182e-011
460
root  -0.489702 40.0832 -1.20987 -1.58772 2.39396 2.06138
RightUpLeg  -1.88488 -6.69441 -6.51501
RightLeg  6.21439 -15.5406 -1.21438
RightFoot  0.904028 -0.539051 4.25058
RightToes  1.74624e-010 -3.18055e-015 -2.98177e-016
Spine  -5.83441 1.25035 0.708553
Spine1  12.158 2.50681 -4.18353
HEad  -11.0962 4.61161 -0.247602
LeftShoulder1  -3.88251e-019 9.70628e-020 -3.87848e-018
LeftArm  -35.7283 71.1925 -73.7057
LeftForeArm  -26.8462 -20.0548 1.41575
LeftHand  -0.460098 -0.1658 10.4517
RightShoulder  8.81323 11.1455 40.4046
RightArm  4.00996 -41.6246 15.3677
RightForeArm  -6.92699 16.1302 -7.44774
RightHand  -0.5898 -0.0769481 -12.5726
LeftUpLeg  -0.950707 -4.00964 -5.55599
LeftLeg  5.10285 11.0568 3.70446
LeftFoot  -2.36756 -0.127243 1.28011
LeftToes  7.37594e-011 2.64622e-011 -6.25182e-011
